# xmcd
#
# Track frame offsets:
#	150
#	17565
#	29130
#	40945
#	57024
#	71958
#	85390
#	99825
#	113633
#	126201
#	140497
#	153133
#	166620
#	181306
#	193985
#	203669
#	221446
#	236729
#
# Disc length: 3427 seconds
#
# Revision: 1
# Processed by: cddbd v1.5.2PL0 Copyright (c) Steve Scherf et al.
# Submitted via: EasyCDDAExtractor 12.0.1.1
#
DISCID=f60d6112
DTITLE=Lillian Askeland - Min barndoms grønne dal
DYEAR=2001
DGENRE=Country
TTITLE0=Min barndoms grønne dal
TTITLE1=Himmelens porter
TTITLE2=Mamma, din dag er i dag
TTITLE3=Gi meg en kjær gammel sang
TTITLE4=Frøet
TTITLE5=Let them walk
TTITLE6=En deilig dag
TTITLE7=Barneår
TTITLE8=Countryjente
TTITLE9=Detroit City
TTITLE10=Min ønskebrønn
TTITLE11=I vår gamle leilighet
TTITLE12=Frank
TTITLE13=S-K-I-L-S-M-I-S-S-E
TTITLE14=No strings
TTITLE15=Blue bayou
TTITLE16=Edith Gassion
TTITLE17=Deportee
EXTD=
EXTT0=
EXTT1=
EXTT2=
EXTT3=
EXTT4=
EXTT5=
EXTT6=
EXTT7=
EXTT8=
EXTT9=
EXTT10=
EXTT11=
EXTT12=
EXTT13=
EXTT14=
EXTT15=
EXTT16=
EXTT17=
PLAYORDER=
